<svg preserveAspectRatio="none" width="186" height="186" viewBox="0 0 186 186" fill="none" xmlns="http://www.w3.org/2000/svg">
<g id="Group 48095425">
<circle id="Ellipse 4598" cx="93" cy="93" r="93" fill="white"/>
<g id="Group 48095416">
<path id="Rectangle 14996" d="M97.5449 186L97.5456 90.7C97.5456 90.4797 97.6183 90.2656 97.7525 90.0909L124.954 54.6706C125.288 54.2358 125.91 54.1509 126.348 54.4804L143.149 67.1098C143.4 67.2987 143.548 67.5948 143.548 67.9092V110.095C143.548 110.473 143.334 110.82 142.995 110.989L120.547 122.206L117.672 123.643L114.797 125.08L113.368 125.793C112.704 126.126 111.921 125.642 111.921 124.899V121.126" stroke="black" stroke-width="2"/>
<path id="Vector 842" d="M102.92 102.083C101.188 100.227 100.149 95.9637 101.188 95.5019C103.237 97.8877 107.884 97.8659 109.801 98.8362C114.999 101.189 114.34 105.932 112.964 108.317C111.233 107.971 106.799 106.239 102.92 102.083Z" fill="black" stroke="black"/>
<path id="Vector 843" d="M111.903 121.573C111.904 117.919 112.009 115.468 115.524 110.698M115.524 110.698C119.916 104.737 124.151 104.266 122.739 98.4624C123.838 98.4623 125.845 99.2777 125.092 102.541C124.503 105.096 122.74 106.618 119.132 108.658C116.334 110.17 115.561 110.648 115.524 110.698Z" stroke="black" stroke-width="2"/>
</g>
</g>
</svg>
