<svg preserveAspectRatio="none" width="224" height="254" viewBox="0 0 223.698 253.857" fill="none" xmlns="http://www.w3.org/2000/svg">
<path d="M134.744 160.883C134.872 160.825 135.012 160.795 135.153 160.795H219.172C220.215 160.795 220.561 162.193 219.639 162.68L110.001 220.564C109.857 220.64 109.697 220.68 109.534 220.68H6.18386C5.1058 220.68 4.79085 219.209 5.77438 218.768L134.744 160.883Z" fill="black"/>
<path d="M133.869 163.207C133.997 163.149 134.137 163.12 134.278 163.12H209.691C210.734 163.12 211.08 164.517 210.158 165.004L109.324 218.241C109.18 218.317 109.019 218.357 108.857 218.357H15.6644C14.5863 218.357 14.2713 216.886 15.2549 216.444L133.869 163.207Z" fill="white"/>
<path d="M133.562 163.944C133.691 163.886 133.83 163.856 133.971 163.856H206.72C207.764 163.856 208.11 165.253 207.187 165.74L109.141 217.505C108.997 217.581 108.837 217.621 108.674 217.621H18.637C17.559 217.621 17.244 216.15 18.2275 215.709L133.562 163.944Z" fill="black"/>
<path d="M109.268 173.267L109.268 73.7456C109.268 73.5254 109.34 73.3113 109.474 73.1366L164.573 1.39102C164.907 0.956189 165.528 0.871323 165.967 1.20077L200.685 27.2991C200.936 27.488 201.084 27.7841 201.084 28.0984V113.409C201.084 113.788 200.87 114.135 200.531 114.304L155.176 136.968L149.437 139.835L143.699 142.703L139.407 144.847C138.742 145.179 137.96 144.696 137.96 143.953V134.81" stroke="black" stroke-width="2"/>
<path d="M222.231 163.474C222.897 163.123 223.698 163.606 223.698 164.359V170.349C223.698 170.716 223.496 171.054 223.172 171.229L111.742 231.291C111.076 231.65 110.268 231.167 110.268 230.41V223.21C110.268 222.839 110.473 222.499 110.801 222.326L222.231 163.474Z" fill="black"/>
<path fill-rule="evenodd" clip-rule="evenodd" d="M108.268 217.639V172.762L110.268 171.881V216.975L108.967 217.639H108.268Z" fill="white"/>
<path d="M0.00175029 231.086C0.00186232 231.638 0.449545 232.085 1.00175 232.085H107.269C107.821 232.085 108.269 231.638 108.269 231.085V223.458C108.269 222.906 107.821 222.458 107.269 222.458H1.0002C0.447841 222.458 9.08557e-05 222.906 0.000202917 223.458L0.00175029 231.086Z" fill="black"/>
<path d="M119.995 96.8043C116.539 93.101 114.464 84.5913 116.538 83.6696C120.628 88.4314 129.903 88.388 133.729 90.3247C144.104 95.0199 142.789 104.488 140.043 109.248C136.586 108.557 127.737 105.101 119.995 96.8043Z" fill="black" stroke="black"/>
<path d="M137.924 135.702C137.925 128.41 138.136 123.518 145.149 113.999M145.149 113.999C153.917 102.1 162.37 101.161 159.552 89.5767C161.743 89.5764 165.751 91.204 164.248 97.7163C163.071 102.817 159.552 105.855 152.351 109.927C146.768 112.944 145.224 113.899 145.149 113.999Z" stroke="black" stroke-width="2"/>
<path d="M0 232.086H108.268V253.857H0V232.086Z" fill="url(#paint0_linear_0_28)" fill-opacity="0.6"/>
<path d="M110.416 232.085L223.549 170.943V192.714L110.416 253.856V232.085Z" fill="url(#paint1_linear_0_28)" fill-opacity="0.6"/>
<defs>
<linearGradient id="paint0_linear_0_28" x1="54.1338" y1="232.086" x2="54.1338" y2="253.857" gradientUnits="userSpaceOnUse">
<stop stop-color="#D8DEDD"/>
<stop offset="1" stop-color="#D8DEDD" stop-opacity="0"/>
</linearGradient>
<linearGradient id="paint1_linear_0_28" x1="169.247" y1="201.118" x2="183.754" y2="228.52" gradientUnits="userSpaceOnUse">
<stop stop-color="#D8DEDD"/>
<stop offset="1" stop-color="#D8DEDD" stop-opacity="0"/>
</linearGradient>
</defs>
</svg>
