<svg width="18" height="18" viewBox="0 0 18 18" fill="none" xmlns="http://www.w3.org/2000/svg">
<path d="M0.373242 12.9957C-0.324483 12.473 0.016691 11.3639 0.887552 11.3237L4.6097 11.1519C5.1484 11.127 5.55289 10.6503 5.48975 10.1148L5.00956 6.04159C4.93923 5.44509 5.44475 4.93957 6.04125 5.00989L10.1144 5.49009C10.65 5.55322 11.1267 5.14874 11.1515 4.61003L11.3233 0.887885C11.3635 0.017024 12.4727 -0.324149 12.9954 0.373576L17.3624 6.20313C17.6396 6.5731 17.6026 7.09052 17.2758 7.41739L12.3464 12.3467L7.41706 17.2761C7.09019 17.603 6.57276 17.6399 6.2028 17.3627L0.373242 12.9957Z" fill="#B9DF21"/>
</svg>
