<svg width="84" height="84" viewBox="0 0 84 84" fill="none" xmlns="http://www.w3.org/2000/svg">
<path d="M41.6667 83.3333C18.6542 83.3333 0 64.6792 0 41.6667C0 18.6542 18.6542 0 41.6667 0C64.6792 0 83.3333 18.6542 83.3333 41.6667C83.3333 64.6792 64.6792 83.3333 41.6667 83.3333ZM62.5 47.9167C62.5 46.2591 61.8415 44.6693 60.6694 43.4972C59.4973 42.3251 57.9076 41.6667 56.25 41.6667H27.0833C25.4257 41.6667 23.836 42.3251 22.6639 43.4972C21.4918 44.6693 20.8333 46.2591 20.8333 47.9167V50C20.8333 58.2125 28.5833 66.6667 41.6667 66.6667C54.75 66.6667 62.5 58.2125 62.5 50V47.9167ZM53.125 26.0417C53.125 23.0027 51.9178 20.0883 49.7689 17.9394C47.6201 15.7905 44.7056 14.5833 41.6667 14.5833C38.6277 14.5833 31.2932 15.4259 30.9843 15.8082C30.4813 16.4306 30.2083 23.0027 30.2083 26.0417C30.2083 29.0806 31.4155 31.9951 33.5644 34.1439C35.7133 36.2928 39.9467 37.2193 41.6667 37.5C46.6918 38.3201 51.0091 40.1204 50.9208 39.3953C50.4427 35.471 53.125 32.0126 53.125 26.0417Z" fill="#00C596"/>
</svg>
