<svg width="49" height="62" viewBox="0 0 49 62" fill="none" xmlns="http://www.w3.org/2000/svg">
<path d="M6.02047 54.6341C4.36484 54.6341 2.94802 54.0233 1.77002 52.8016C0.590005 51.5778 0 50.1073 0 48.3902V20.2927C0 19.3041 0.213726 18.3675 0.641179 17.4829C1.06663 16.5984 1.65563 15.8699 2.40819 15.2976L20.4696 1.24878C21.5232 0.41626 22.7273 0 24.0819 0C25.4365 0 26.6406 0.41626 27.6941 1.24878L45.7555 15.2976C46.5081 15.8699 47.0981 16.5984 47.5256 17.4829C47.951 18.3675 48.1637 19.3041 48.1637 20.2927V24.3512C47.2105 24.039 46.2322 23.8049 45.2288 23.6488C44.2253 23.4927 43.1968 23.4146 42.1433 23.4146V20.2927L24.0819 6.2439L6.02047 20.2927V48.3902H21.2974C21.4479 49.4829 21.6737 50.5496 21.9747 51.5902C22.2757 52.6309 22.652 53.6455 23.1035 54.6341H6.02047Z" fill="white"/>
<path d="M32.2794 59.8298V42.8266M32.2794 43.8893V50.2655M32.2794 43.8893C32.2794 41.6345 31.4158 39.4721 29.8785 37.8778C28.3412 36.2834 26.2561 35.3877 24.082 35.3877M32.2794 43.8893H38.4275C40.6015 43.8893 42.6866 42.9936 44.2239 41.3992C45.7612 39.8049 46.6249 37.6425 46.6249 35.3877V29.0115H40.4768C38.3027 29.0115 36.2177 29.9072 34.6804 31.5015C33.1431 33.0959 32.2794 35.2583 32.2794 37.5131V43.8893ZM32.2794 43.8893L40.4768 35.3877" stroke="white" stroke-width="2.5" stroke-linecap="round" stroke-linejoin="round"/>
</svg>
