<svg width="50" height="63" viewBox="0 0 50 63" fill="none" xmlns="http://www.w3.org/2000/svg">
<path d="M50 40C50 38.0109 49.2098 36.1032 47.8033 34.6967C46.3968 33.2902 44.4891 32.5 42.5 32.5H7.5C5.51088 32.5 3.60322 33.2902 2.1967 34.6967C0.790174 36.1032 0 38.0109 0 40V42.5C0 52.355 9.3 62.5 25 62.5C40.7 62.5 50 52.355 50 42.5V40ZM38.75 13.75C38.75 10.1033 37.3013 6.60591 34.7227 4.02728C32.1441 1.44866 28.6467 0 25 0C21.3533 0 12.5519 1.01105 12.1811 1.46989C11.5776 2.21675 11.25 10.1033 11.25 13.75C11.25 17.3967 12.6987 20.8941 15.2773 23.4727C17.8559 26.0513 22.936 27.1631 25 27.5C31.0302 28.4842 36.2109 30.6445 36.1049 29.7744C35.5312 25.0652 38.75 20.9151 38.75 13.75Z" fill="white"/>
</svg>
