<svg width="27" height="27" viewBox="0 0 27 27" fill="none" xmlns="http://www.w3.org/2000/svg">
<path d="M13.4274 17.0083C15.4049 17.0083 17.0081 15.4052 17.0081 13.4276C17.0081 11.4501 15.4049 9.84692 13.4274 9.84692C11.4498 9.84692 9.84668 11.4501 9.84668 13.4276C9.84668 15.4052 11.4498 17.0083 13.4274 17.0083Z" fill="white"/>
<path d="M10.0711 2.23804L8.02335 4.47597H4.47622C3.24535 4.47597 2.23828 5.48305 2.23828 6.71391V20.1415C2.23828 21.3724 3.24535 22.3795 4.47622 22.3795H22.3797C23.6106 22.3795 24.6176 21.3724 24.6176 20.1415V6.71391C24.6176 5.48305 23.6106 4.47597 22.3797 4.47597H18.8326L16.7849 2.23804H10.0711ZM13.428 19.0226C10.3396 19.0226 7.83312 16.5161 7.83312 13.4277C7.83312 10.3394 10.3396 7.83288 13.428 7.83288C16.5163 7.83288 19.0228 10.3394 19.0228 13.4277C19.0228 16.5161 16.5163 19.0226 13.428 19.0226Z" fill="white"/>
</svg>
