<svg width="17" height="17" viewBox="0 0 17 17" fill="none" xmlns="http://www.w3.org/2000/svg">
<path d="M8.16699 0C12.6772 0.000176778 16.333 3.65678 16.333 8.16699C16.3328 12.6771 12.6771 16.3328 8.16699 16.333C3.65678 16.333 0.000176267 12.6772 0 8.16699C0 3.65667 3.65667 0 8.16699 0ZM11.3955 4.9375C11.1072 4.64945 10.6398 4.64932 10.3516 4.9375L8.16602 7.12207L5.98145 4.9375C5.69313 4.64945 5.22574 4.64932 4.9375 4.9375C4.64927 5.22573 4.64943 5.69311 4.9375 5.98145L7.12207 8.16602L4.9375 10.3516C4.64927 10.6398 4.64943 11.1072 4.9375 11.3955C5.22582 11.6838 5.69315 11.6838 5.98145 11.3955L8.16602 9.20996L10.3516 11.3955C10.6399 11.6838 11.1072 11.6838 11.3955 11.3955C11.6837 11.1072 11.6837 10.6399 11.3955 10.3516L9.20996 8.16602L11.3955 5.98145C11.6837 5.69315 11.6837 5.2258 11.3955 4.9375Z" fill="#C8C8C8"/>
</svg>
