<svg width="23" height="23" viewBox="0 0 23 23" fill="none" xmlns="http://www.w3.org/2000/svg">
<path d="M18.1914 0.5C18.6772 0.500002 19.1586 0.595347 19.6074 0.78125C20.0562 0.96715 20.4642 1.23956 20.8076 1.58301C21.5013 2.27674 21.8906 3.21813 21.8906 4.19922C21.8906 5.18008 21.5011 6.12077 20.8076 6.81445L12.9385 14.6836C9.69161 17.9223 5.74633 20.3749 1.40527 21.8535C1.33388 21.8778 1.25902 21.8896 1.18359 21.8896C1.09511 21.8895 1.00747 21.8729 0.925781 21.8389C0.843749 21.8047 0.768665 21.7545 0.706055 21.6914L0.705078 21.6895L0.701172 21.6855L0.699219 21.6846L0.636719 21.6133C0.579731 21.5381 0.539173 21.4509 0.517578 21.3584C0.488878 21.2351 0.49502 21.1061 0.536133 20.9863L0.537109 20.9854C1.92346 16.9153 4.16564 13.1932 7.10938 10.0684L7.70703 9.45215L15.5762 1.58301C16.2699 0.889568 17.2105 0.500008 18.1914 0.5ZM8.06836 9.81543C5.05106 12.8408 2.72569 16.4851 1.25293 20.4961L0.880859 21.5098L1.89453 21.1377C5.90559 19.6648 9.54982 17.3387 12.5752 14.3213H12.5762L17.6172 9.28027L13.1104 4.77344L8.06836 9.81543ZM18.1924 1.00977C17.7735 1.01007 17.3585 1.09321 16.9717 1.25391C16.5849 1.41461 16.2332 1.64969 15.9375 1.94629L13.4727 4.41113L17.9795 8.91797L18.333 8.56445L20.4434 6.45215L20.4443 6.45312C20.7409 6.15739 20.976 5.80573 21.1367 5.41895C21.2973 5.03232 21.3805 4.61789 21.3809 4.19922C21.3812 3.78051 21.2987 3.36544 21.1387 2.97852C20.9785 2.59149 20.7434 2.23953 20.4473 1.94336C20.1511 1.64719 19.7991 1.4121 19.4121 1.25195C19.0254 1.09198 18.6109 1.00953 18.1924 1.00977Z" fill="#404040" stroke="#404040"/>
</svg>
