<svg width="72" height="25" viewBox="0 0 72 25" fill="none" xmlns="http://www.w3.org/2000/svg">
<path d="M1.66185 1.59904L6.78531 1.53377C12.3983 1.53377 14.3067 1.53377 15.2048 7.76679C15.2048 10.1599 14.3781 12.02 12.7246 13.3471C11.0929 14.6742 8.2953 14.96 6.43088 14.7578C5.46075 14.6526 4.59887 14.3381 3.61986 14.1423V19.9717C3.61986 21.7557 3.82654 23.159 4.2399 24.1815V24.3773H0V23.9857C0.413359 22.8761 0.620026 21.3206 0.620026 19.3191V6.82042C0.620026 4.53607 0.445992 2.79561 0.0979004 1.59904V1.37061L1.66185 1.59904ZM11.5553 6.48979C11.5553 3.22643 9.95077 3.19809 6.81795 3.19809C5.22978 3.19809 4.18552 3.23072 3.68513 3.29599C3.64162 3.88339 3.61986 5.79789 3.61986 9.03949V13.5103C4.46833 13.7496 5.34943 13.8693 6.26317 13.8693C7.98187 13.8693 9.28723 13.3689 10.1792 12.3681C11.0712 11.3456 11.5553 8.31727 11.5553 6.48979Z" fill="black"/>
<path d="M23.3609 24.3773H19.1512V23.9857C19.2259 22.7067 19.2941 21.1792 19.2941 18.8296V5.08231C19.2941 3.34185 19.2056 2.13206 18.2048 1.17481V0.783205L22.6756 0C22.6756 0 22.7722 0.00292066 22.8055 0.0374947C22.8388 0.0720687 22.8909 0.126026 22.8909 0.126026L23.0616 0.303091L23.403 0.657221C23.0616 2.12758 22.7735 3.0458 22.7735 6.59198L22.8062 18.8296C22.8062 21.1792 22.9911 22.8979 23.3609 23.9857V24.3773Z" fill="black"/>
<path d="M35.7035 17.3938C34.5152 16.7308 32.9192 16.1888 32.0609 16.0984C31.2027 16.0081 30.2039 16.0087 29.6818 16.3786C29.3554 16.879 28.8435 18.3882 29.0334 19.2748C29.2234 20.1615 29.593 20.7149 30.0499 21.1935C30.6403 21.7053 31.5348 22.093 32.2093 22.093C32.9055 22.093 33.3866 21.9842 34.1045 21.6361C34.8224 21.2663 35.3554 20.8747 35.7035 20.4613V17.3938ZM36.2257 22.093C34.8986 23.5506 33.3974 24.2794 31.7222 24.2794C30.0688 24.2794 29.0316 23.9205 28.0743 23.2025C27.1388 22.4846 26.6711 21.3315 26.6711 19.7434C26.6711 18.1334 27.2258 16.9804 28.3354 16.2842C29.4667 15.588 30.7867 15.2399 32.8318 15.2399L35.7035 15.3378V13.4777C35.7035 12.3247 35.4207 11.3892 34.8551 10.6712C34.2894 9.9533 33.43 9.59433 32.277 9.59433C31.4285 9.61608 30.2064 10.1534 28.3354 11.7633C27.6835 11.2893 26.9724 10.4003 26.403 9.59433C28.5568 8.89814 30.9934 7.86475 32.7991 7.86475C34.6049 7.86475 36.5424 8.4304 37.6302 9.36589C38.7179 10.3014 39.2618 11.6285 39.2618 13.3472V18.8296C39.2836 19.8086 39.4359 20.7224 39.7187 21.5709C40.0233 22.3976 40.4455 23.3657 40.9241 23.692L40.9893 24.0184L36.9762 24.3773C36.6934 23.6812 36.4432 22.9197 36.2257 22.093Z" fill="black"/>
<path d="M57.7474 19.8085V13.9018C57.7474 13.619 57.7474 13.3644 57.6822 12.6944C57.6169 12.0243 57.3558 11.2258 57.3558 11.2258C56.7031 9.28958 55.2564 8.32145 53.0155 8.32145C52.4716 8.32145 51.8843 8.47374 51.2533 8.77832C50.6442 9.0829 50.1656 9.3766 49.8175 9.65943C49.4911 9.9205 48.9363 10.3882 48.1531 11.0627C48.0661 10.236 47.9356 9.42012 47.7615 8.61516L47.5657 8.28882L43.9894 9.26782L44.022 9.65943C44.5224 9.96401 44.9575 10.5732 45.3274 11.4869C45.719 12.3789 45.9148 13.2926 45.9148 14.2281V19.7758C45.9148 21.5816 45.5773 23.2816 45.4678 24.1487V24.3772L49.23 24.3772V24.1487C48.5991 22.7129 48.2837 20.9398 48.2837 18.8295V12.6617C49.9371 11.5522 51.2533 10.9974 52.2323 10.9974C53.2113 10.9974 53.864 11.2911 54.1904 11.8785C54.5167 12.4442 54.6799 13.347 54.6799 14.5871V19.8085C54.6799 21.5489 54.5167 22.9957 54.1904 24.1487V24.3772H58.2369V24.1487C57.9106 22.9957 57.7474 21.5489 57.7474 19.8085Z" fill="black"/>
<path d="M66.4583 20.4584C66.4583 21.6114 67.3304 22.1811 68.0266 22.1811C68.4418 22.1811 68.8873 22.0839 69.501 21.7059C69.7555 21.5492 69.9451 21.2849 69.9451 20.7497L70.1615 20.7042L70.9354 21.5233C70.2842 22.0117 69.1324 23.0157 68.1727 23.6089C67.1376 24.1558 66.6925 24.3772 65.6622 24.3772C64.792 24.3772 64.2066 24.2004 63.8803 23.6565C63.5539 23.1126 63.3907 22.3294 63.3907 21.3069V10.3093H61.2369V8.44922C61.6285 8.49273 62.3247 8.43834 63.3255 8.48186C63.282 7.39407 63.2167 6.41507 63.1297 5.54484L66.18 4.5835L66.4583 4.69636V8.44922C67.6331 8.40571 69.2322 8.27518 71.2555 8.05762V8.34458L70.8639 9.16716L70.4722 10.2767C69.291 10.2767 67.8404 10.2767 66.4583 10.2767V20.4584Z" fill="black"/>
</svg>
