<svg width="128" height="24" viewBox="0 0 128 24" fill="none" xmlns="http://www.w3.org/2000/svg">
<path d="M3.68759 10.4732C3.68759 13.606 4.24489 15.4534 5.74603 17.1938C7.26893 18.9343 9.07904 19.9696 11.3199 19.9696C12.9516 19.9696 14.5503 20.1575 17.248 18.6781L18.9601 19.5127C17.9593 20.2524 17.1761 20.7854 16.6105 21.1118C16.0666 21.4381 15.4466 21.7753 14.7504 22.1234C13.3363 22.7978 11.8242 23.135 10.2143 23.135C7.38607 23.135 4.97118 22.0799 2.96966 19.9696C0.989885 17.8593 0 15.031 0 11.4849C0 7.93868 2.19849 4.87547 4.5046 2.65639C7.07496 0.625048 8.78862 0 12.2043 0C14.4886 0 16.6276 0.117025 18.6291 1.1613C18.368 2.53191 17.6872 3.77605 17.0345 4.71154C14.7937 2.90582 9.81369 2.02112 9.81369 2.02112C9.81369 2.02112 8.29688 1.86883 7.55718 2.02112C6.44764 2.84784 5.5042 3.96825 4.7645 5.38238C4.04656 6.7965 3.68759 8.49345 3.68759 10.4732Z" fill="black"/>
<path d="M28.5724 23.1351C26.288 23.1351 25.2685 22.4171 23.9414 20.9813C22.6143 19.5236 21.9601 17.6309 21.9601 15.303C21.9601 12.9534 22.3967 10.1077 23.9414 8.41074C25.486 6.71379 26.9624 6.68774 29.2903 6.68774C31.6399 6.68774 34.0603 7.39481 35.3222 8.80893C36.6057 10.223 37.073 12.1158 37.073 14.4872C37.073 16.8585 36.567 17.9324 35.0223 19.6294C33.4777 21.3263 30.8567 23.1351 28.5724 23.1351ZM33.1737 15.303C33.1737 13.1492 32.8365 11.7459 32.162 10.5711C31.4876 9.39633 30.2911 8.80893 28.5724 8.80893C27.4628 8.80893 26.5926 8.78717 25.9617 9.2658C25.5701 9.76618 25.2437 10.5276 24.9827 11.5501C24.7434 12.5727 24.6237 13.5517 24.6237 14.4872C24.6237 19.0341 25.7087 21.6801 28.9286 21.6801C29.9293 21.6801 31.3078 21.778 31.9387 21.3211C32.352 20.8207 32.6675 20.0484 32.8851 19.0041C33.1026 17.9598 33.1737 16.2603 33.1737 15.303Z" fill="black"/>
<path d="M53.8312 12.6596V18.5663C53.8312 20.3067 53.9943 21.7535 54.3207 22.9065V23.135H50.2741V22.9065C50.6004 21.7535 50.7636 20.3067 50.7636 18.5663V13.3449C50.7636 12.1048 50.6004 11.202 50.2741 10.6363C49.9478 10.0489 49.2951 9.75522 48.3161 9.75522C47.3371 9.75522 46.0209 10.31 44.3674 11.4195V17.5873C44.3674 19.6976 44.6829 21.4707 45.3138 22.9065V23.135H41.9985V22.9065C42.108 22.0394 41.9985 20.3394 41.9985 18.5336V12.9859C41.9985 12.0504 41.8027 11.1367 41.4111 10.2447C41.0412 9.33098 40.6061 8.72182 40.1058 8.41724L40.0731 8.02564L43.6495 7.04663L43.8453 7.37297C44.0193 8.17793 44.1499 8.99377 44.2369 9.82048C45.0201 9.14606 45.5749 8.67831 45.9012 8.41724C46.2493 8.13442 46.7279 7.84072 47.3371 7.53614C47.968 7.23156 48.5554 7.07926 49.0993 7.07926C51.3401 7.07926 52.7869 8.04739 53.4396 9.98365C55.6804 8.04739 57.4317 7.07926 58.6936 7.07926C60.2165 7.07926 61.4021 7.57965 62.2506 8.58041C63.0991 9.58117 63.5233 11.0171 63.5233 12.888V17.5873C63.5233 19.6541 63.8497 21.4272 64.5023 22.9065V23.135H59.901V22.9065C60.2708 21.8188 60.4558 20.372 60.4558 18.5663V13.5733C60.4558 11.0279 59.0171 9.1999 57.4289 9.1999C56.6928 9.1999 55.5748 9.28393 54.827 9.75522C54.0399 10.2513 53.8312 10.8327 53.7659 11.4522C53.8094 11.9743 53.8312 12.3768 53.8312 12.6596Z" fill="black"/>
<path d="M81.2604 12.6596V18.5663C81.2604 20.3067 81.4235 21.7535 81.7499 22.9065V23.135H77.7033V22.9065C78.0296 21.7535 78.1928 20.3067 78.1928 18.5663V13.3449C78.1928 12.1048 78.0296 11.202 77.7033 10.6363C77.377 10.0489 76.7243 9.75522 75.7453 9.75522C74.7663 9.75522 73.4501 10.31 71.7966 11.4195V17.5873C71.7966 19.6976 72.1121 21.4707 72.743 22.9065V23.135H69.4277V22.9065C69.5372 22.0394 69.4277 20.3394 69.4277 18.5336V12.9859C69.4277 12.0504 69.2319 11.1367 68.8403 10.2447C68.4704 9.33098 68.0353 8.72182 67.535 8.41724L67.5023 8.02564L71.0787 7.04663L71.2745 7.37297C71.4485 8.17793 71.5791 8.99377 71.6661 9.82048C72.4493 9.14606 73.0041 8.67831 73.3304 8.41724C73.6785 8.13442 74.1571 7.84072 74.7663 7.53614C75.3972 7.23156 75.9846 7.07926 76.5285 7.07926C78.7693 7.07926 80.2161 8.04739 80.8688 9.98365C83.1096 8.04739 84.8609 7.07926 86.1228 7.07926C87.6457 7.07926 88.8313 7.57965 89.6798 8.58041C90.5283 9.58117 90.9525 11.0171 90.9525 12.888V17.5873C90.9525 19.6541 91.2789 21.4272 91.9315 22.9065V23.135H87.3302V22.9065C87.7 21.8188 87.885 20.372 87.885 18.5663V13.5733C87.885 11.0279 86.4463 9.1999 84.8581 9.1999C84.122 9.1999 83.004 9.28393 82.2562 9.75522C81.4691 10.2513 81.2604 10.8327 81.1951 11.4522C81.2386 11.9743 81.2604 12.3768 81.2604 12.6596Z" fill="black"/>
<path d="M101.544 23.1351C99.2594 23.1351 98.2399 22.4171 96.9128 20.9813C95.5857 19.5236 94.9315 17.6309 94.9315 15.303C94.9315 12.9534 95.3681 10.1077 96.9128 8.41074C98.4575 6.71379 99.9339 6.68774 102.262 6.68774C104.611 6.68774 107.032 7.39481 108.294 8.80893C109.577 10.223 110.044 12.1158 110.044 14.4872C110.044 16.8585 109.538 17.9324 107.994 19.6294C106.449 21.3263 103.828 23.1351 101.544 23.1351ZM106.145 15.303C106.145 13.1492 105.808 11.7459 105.133 10.5711C104.459 9.39633 103.262 8.80893 101.544 8.80893C100.434 8.80893 99.564 8.78717 98.9331 9.2658C98.5415 9.76618 98.2152 10.5276 97.9541 11.5501C97.7148 12.5727 97.5951 13.5517 97.5951 14.4872C97.5951 19.0341 98.6802 21.6801 101.9 21.6801C102.901 21.6801 104.279 21.778 104.91 21.3211C105.323 20.8207 105.639 20.0484 105.856 19.0041C106.074 17.9598 106.145 16.2603 106.145 15.303Z" fill="black"/>
<path d="M126.802 18.5663V12.6596C126.802 12.3768 126.802 12.1222 126.737 11.4522C126.672 10.7821 126.411 9.98365 126.411 9.98365C125.758 8.04739 124.311 7.07926 122.071 7.07926C121.527 7.07926 120.939 7.23156 120.308 7.53614C119.699 7.84072 119.221 8.13442 118.873 8.41724C118.546 8.67831 117.991 9.14606 117.208 9.82048C117.121 8.99377 116.991 8.17793 116.817 7.37297L116.621 7.04663L113.044 8.02564L113.077 8.41724C113.577 8.72182 114.013 9.33098 114.382 10.2447C114.774 11.1367 114.97 12.0504 114.97 12.9859V18.5336C114.97 20.3394 114.632 22.0394 114.523 22.9065V23.135L118.285 23.135V22.9065C117.654 21.4707 117.339 19.6976 117.339 17.5873V11.4195C118.992 10.31 120.308 9.75522 121.287 9.75522C122.266 9.75522 122.919 10.0489 123.245 10.6363C123.572 11.202 123.735 12.1048 123.735 13.3449V18.5663C123.735 20.3067 123.572 21.7535 123.245 22.9065V23.135H127.292V22.9065C126.966 21.7535 126.802 20.3067 126.802 18.5663Z" fill="black"/>
</svg>
