<svg width="28" height="19" viewBox="0 0 28 19" fill="none" xmlns="http://www.w3.org/2000/svg">
<path fill-rule="evenodd" clip-rule="evenodd" d="M8.82143 9.5C11.4455 9.5 13.5714 7.37404 13.5714 4.75C13.5714 2.12596 11.4455 0 8.82143 0C6.19739 0 4.07143 2.12596 4.07143 4.75C4.07143 7.37404 6.19739 9.5 8.82143 9.5ZM12.2143 4.75C12.2143 6.62489 10.6963 8.14286 8.82143 8.14286C6.94653 8.14286 5.42857 6.62489 5.42857 4.75C5.42857 2.87511 6.94653 1.35714 8.82143 1.35714C10.6963 1.35714 12.2143 2.87511 12.2143 4.75ZM0 19V15.2C0 12.312 5.87711 10.8571 8.82143 10.8571C10.7798 10.8571 14.0362 11.5011 15.9973 12.7822C17.3952 12.4043 18.9281 12.2143 20.0179 12.2143C21.2786 12.2143 22.9703 12.4681 24.3675 12.9811C25.0637 13.2376 25.7307 13.5741 26.2349 14.0098C26.7432 14.4488 27.1429 15.0426 27.1429 15.7876V19H0ZM1.35714 15.2C1.35714 14.9849 1.45621 14.6904 1.87693 14.3077C2.30646 13.9168 2.96739 13.5382 3.80407 13.2084C5.48082 12.5468 7.51653 12.2143 8.82143 12.2143C10.1263 12.2143 12.1627 12.5468 13.8381 13.2084C14.6755 13.5382 15.3364 13.9168 15.7652 14.3077C16.1866 14.6904 16.2857 14.9849 16.2857 15.2V17.6429H1.35714V15.2ZM17.2038 13.8904C18.2305 13.678 19.2599 13.5714 20.0179 13.5714C21.1355 13.5714 22.6663 13.8021 23.8993 14.2554C24.5161 14.4821 25.0149 14.7494 25.348 15.0371C25.6771 15.3215 25.7857 15.5712 25.7857 15.7883V17.6429H17.6429V15.2C17.6429 14.725 17.4834 14.2873 17.2038 13.8904ZM23.75 7.125C23.75 9.18718 22.08 10.8571 20.0179 10.8571C19.028 10.8571 18.0787 10.4639 17.3788 9.76402C16.6789 9.06411 16.2857 8.11483 16.2857 7.125C16.2857 5.06282 17.9557 3.39286 20.0179 3.39286C22.08 3.39286 23.75 5.06282 23.75 7.125ZM20.0179 9.5C21.3302 9.5 22.3929 8.43736 22.3929 7.125C22.3929 5.81264 21.3302 4.75 20.0179 4.75C19.388 4.75 18.7839 5.00022 18.3385 5.44562C17.8931 5.89102 17.6429 6.49511 17.6429 7.125C17.6429 8.43736 18.7055 9.5 20.0179 9.5Z" fill="black"/>
</svg>
