<svg width="48" height="133" viewBox="0 0 48 133" fill="none" xmlns="http://www.w3.org/2000/svg">
<path d="M1 132.721L1.00067 37.4204C1.00067 37.2001 1.0734 36.986 1.20756 36.8113L28.4092 1.39106C28.7431 0.956225 29.3649 0.871359 29.8032 1.2008L46.6039 13.8303C46.8552 14.0192 47.003 14.3152 47.003 14.6296V56.815C47.003 57.1939 46.7889 57.5402 46.45 57.7096L24.0019 68.9268L21.1268 70.3635L18.2516 71.8002L16.8235 72.5139C16.1586 72.8461 15.3765 72.3626 15.3765 71.6193V67.846" stroke="#C8C8C8" stroke-width="2"/>
<path d="M6.37489 48.8031C4.64327 46.9477 3.60393 42.6841 4.64309 42.2223C6.69192 44.6081 11.3389 44.5863 13.256 45.5566C18.4542 47.9091 17.7952 52.6528 16.4194 55.0377C14.6876 54.6913 10.2541 52.9597 6.37489 48.8031Z" fill="#C8C8C8" stroke="#C8C8C8"/>
<path d="M15.3584 68.2931C15.359 64.6392 15.4645 62.1881 18.9786 57.419M18.9786 57.419C23.3712 51.4575 27.6064 50.9869 26.1946 45.1829C27.2926 45.1827 29.3005 45.9982 28.5476 49.261C27.9578 51.8166 26.1947 53.3387 22.5866 55.3788C19.7895 56.8906 19.0158 57.3688 18.9786 57.419Z" stroke="#C8C8C8" stroke-width="2"/>
</svg>
