<svg width="20" height="20" viewBox="0 0 20 20" fill="none" xmlns="http://www.w3.org/2000/svg">
<path d="M9.66093 19.2084V9.02444M9.66093 9.66093V13.4799M9.66093 9.66093C9.66093 8.31046 9.12446 7.0153 8.16953 6.06037C7.21461 5.10544 5.91944 4.56897 4.56897 4.56897H0.75V8.38794C0.75 9.73842 1.28647 11.0336 2.2414 11.9885C3.19633 12.9434 4.49149 13.4799 5.84196 13.4799H9.66093M9.66093 9.66093H13.4799C14.8304 9.66093 16.1255 9.12446 17.0805 8.16953C18.0354 7.2146 18.5719 5.91944 18.5719 4.56897V0.75H14.7529C13.4024 0.75 12.1073 1.28647 11.1523 2.2414C10.1974 3.19633 9.66093 4.49149 9.66093 5.84196V9.66093ZM9.66093 9.66093L14.7529 4.56897M9.66093 13.4799L4.56897 8.38794" stroke="#404040" stroke-width="1.5" stroke-linecap="round" stroke-linejoin="round"/>
</svg>
