<svg width="24" height="24" viewBox="0 0 24 24" fill="none" xmlns="http://www.w3.org/2000/svg">
<path fill-rule="evenodd" clip-rule="evenodd" d="M12.9956 3.71452C14.1296 2.61673 15.6675 2 17.2712 2H21.2246C21.6528 2 22 2.33608 22 2.75066V6.57797C22 8.13048 21.363 9.6194 20.229 10.7172C19.095 11.815 17.5571 12.4317 15.9534 12.4317H12.7754V21.2493C12.7754 21.6639 12.4282 22 12 22C11.5718 22 11.2246 21.6639 11.2246 21.2493V16.259H8.0466C6.44294 16.259 4.90496 15.6423 3.77101 14.5445C2.63705 13.4467 2 11.9578 2 10.4053V6.57797C2 6.16339 2.34715 5.82731 2.77539 5.82731H6.72879C8.33245 5.82731 9.87043 6.44404 11.0044 7.54183C11.0803 7.61528 11.1539 7.69048 11.2253 7.76733C11.2484 6.24608 11.8827 4.79193 12.9956 3.71452ZM13.872 10.9304L17.8195 7.10877C18.1223 6.81562 18.1223 6.34033 17.8195 6.04718C17.5167 5.75403 17.0257 5.75403 16.7229 6.04718L12.7754 9.8688V7.85374C12.7754 6.69941 13.2491 5.59235 14.0922 4.77611C14.9353 3.95988 16.0788 3.50132 17.2712 3.50132H20.4492V6.57797C20.4492 7.73231 19.9756 8.83936 19.1324 9.6556C18.2893 10.4718 17.1458 10.9304 15.9534 10.9304H13.872ZM11.2246 13.6961V11.6811C11.2246 10.5267 10.7509 9.41967 9.90782 8.60343C9.06469 7.78719 7.92116 7.32863 6.72879 7.32863H3.55078V10.4053C3.55078 11.5596 4.02445 12.6667 4.86757 13.4829C5.7107 14.2992 6.85423 14.7577 8.0466 14.7577H10.128L6.18051 10.9361C5.8777 10.6429 5.8777 10.1676 6.18051 9.87449C6.48332 9.58134 6.97427 9.58134 7.27708 9.87449L11.2246 13.6961Z" fill="#00C596"/>
<path d="M12.0002 20.9464V11.0744V20.9464ZM12.0002 11.6914V15.3934V11.6914ZM12.0002 11.6914C12.0002 10.3823 11.463 9.12685 10.5068 8.20117C9.55067 7.27549 8.25382 6.75545 6.90159 6.75545H3.07764V10.4574C3.07764 11.7665 3.61481 13.022 4.57098 13.9477C5.52715 14.8734 6.824 15.3934 8.17624 15.3934H12.0002M12.0002 11.6914H15.8241C17.1764 11.6914 18.4732 11.1714 19.4294 10.2457C20.3856 9.32004 20.9227 8.06456 20.9227 6.75545V3.05347H17.0988C15.7466 3.05347 14.4497 3.57351 13.4935 4.49918C12.5374 5.42486 12.0002 6.68035 12.0002 7.98945V11.6914ZM12.0002 11.6914L17.0988 6.75545L12.0002 11.6914ZM12.0002 15.3934L6.90159 10.4574L12.0002 15.3934Z" fill="#00C596"/>
<path d="M12.0002 20.9464V11.0744M12.0002 15.3934H8.17624C6.824 15.3934 5.52715 14.8734 4.57098 13.9477C3.61481 13.022 3.07764 11.7665 3.07764 10.4574V6.75545H6.90159C8.25382 6.75545 9.55067 7.27549 10.5068 8.20117C11.463 9.12685 12.0002 10.3823 12.0002 11.6914V15.3934ZM12.0002 11.6914H15.8241C17.1764 11.6914 18.4732 11.1714 19.4294 10.2457C20.3856 9.32004 20.9227 8.06456 20.9227 6.75545V3.05347H17.0988C15.7466 3.05347 14.4497 3.57351 13.4935 4.49918C12.5374 5.42486 12.0002 6.68035 12.0002 7.98945V11.6914ZM12.0002 11.6914L17.0988 6.75545M12.0002 15.3934L6.90159 10.4574" stroke="#00C596" stroke-width="1.5" stroke-linecap="round" stroke-linejoin="round"/>
<path d="M10.4277 6.0437C11.2013 6.68752 12.9134 8.30194 13.5732 9.6091" stroke="white" stroke-width="1.5"/>
<path d="M13.5535 9.59422L17.7185 5.56152M10.4534 16.7116V14.0426L6.64746 10.358" stroke="white" stroke-width="1.5" stroke-linecap="round" stroke-linejoin="round"/>
</svg>
