<svg width="103" height="59" viewBox="0 0 103 59" fill="none" xmlns="http://www.w3.org/2000/svg">
<path d="M31.2845 27.1884C28.3385 23.9446 26.5702 16.4906 28.3382 15.6833C31.8239 19.8543 39.7301 19.8163 42.9917 21.5127C51.8356 25.6254 50.7144 33.9188 48.3737 38.0882C45.4274 37.4827 37.8844 34.4553 31.2845 27.1884Z" fill="#999999"/>
<path fill-rule="evenodd" clip-rule="evenodd" d="M28.2091 14.9365L28.4377 15.1994C30.1181 17.132 32.9018 18.1231 35.7872 18.835C36.6625 19.051 37.5212 19.2358 38.3538 19.415C38.8969 19.5319 39.4288 19.6464 39.9471 19.7656C41.2275 20.0601 42.4069 20.3799 43.2972 20.8231C47.9549 22.9078 50.0385 26.0836 50.6124 29.3029C51.1812 32.4938 50.2583 35.6723 49.0162 37.7987L48.8471 38.0882L48.5153 38.0226C45.4036 37.408 37.5859 34.3801 30.754 27.1502C29.1715 25.4755 27.9362 22.76 27.3213 20.3832C27.0129 19.1915 26.8514 18.0509 26.8919 17.1389C26.9121 16.6838 26.9835 16.2606 27.1297 15.9097C27.2768 15.5567 27.5162 15.2406 27.8885 15.0772L28.2091 14.9365ZM28.235 20.1526C28.8277 22.4432 30.0075 24.995 31.4435 26.5147C37.8945 33.3415 45.2251 36.3144 48.3658 37.0375C49.435 35.0661 50.1807 32.2534 49.6835 29.4644C49.1664 26.5635 47.2962 23.6329 42.8991 21.6676L42.8898 21.6634L42.8806 21.6588C42.1011 21.2692 41.0186 20.9684 39.7332 20.6728C39.2439 20.5603 38.7219 20.4478 38.1817 20.3314C37.3333 20.1487 36.4401 19.9562 35.5586 19.7387C32.8275 19.0649 29.9546 18.0969 28.0506 16.1611C28.0341 16.1917 28.0178 16.2259 28.0019 16.2641C27.9123 16.4792 27.8516 16.7849 27.8341 17.1797C27.7991 17.9674 27.9395 19.0105 28.235 20.1526Z" fill="#999999"/>
<path fill-rule="evenodd" clip-rule="evenodd" d="M60.4898 20.9113L61.6608 20.9111C62.6942 20.911 64.1743 21.2988 65.2358 22.5275C66.3333 23.798 66.8163 25.7689 66.1901 28.5684C65.1844 33.064 62.1355 35.6625 56.5443 38.9238L56.5366 38.9283L56.5289 38.9326C54.3734 40.1344 53.0031 40.9223 52.1673 41.4178C51.7487 41.666 51.4693 41.8378 51.2947 41.9498C51.2473 41.9801 51.2098 42.0048 51.1807 42.0243C48.58 45.6885 47.4115 48.4612 46.9363 50.9699C46.4525 53.5237 46.6684 55.8784 46.9527 58.8104L45.121 58.9994C44.8401 56.1027 44.586 53.4754 45.1296 50.6057C45.6768 47.7171 47.0138 44.6563 49.7805 40.783C51.5154 38.3541 53.2327 36.4879 54.7849 34.9183C55.3172 34.38 55.8205 33.8854 56.2953 33.419C57.2284 32.5022 58.0513 31.6937 58.7676 30.8738C59.8234 29.6652 60.548 28.5356 60.9071 27.2134C61.2655 25.8938 61.2856 24.286 60.7666 22.085L60.4898 20.9113ZM54.5304 37.8907C54.8769 37.6959 55.2483 37.4881 55.6459 37.2664C61.1887 34.0325 63.5817 31.7834 64.3964 28.1414C64.9325 25.745 64.447 24.4687 63.8615 23.7909C63.5664 23.4493 63.2047 23.211 62.8353 23.0549C63.114 24.8397 63.0513 26.3572 62.6796 27.7257C62.2139 29.4402 61.2888 30.8243 60.135 32.145C59.3722 33.0182 58.4646 33.9104 57.4976 34.8609C57.0334 35.3171 56.5555 35.7868 56.0735 36.2743C55.572 36.7815 55.0562 37.3169 54.5304 37.8907Z" fill="#999999"/>
<path opacity="0.8" fill-rule="evenodd" clip-rule="evenodd" d="M102.315 17.9238C101.995 18.4605 99.9749 20.1643 97.0877 20.1643C94.2004 20.1643 91.8599 19.1612 91.8599 17.9238C91.8599 16.6864 94.2004 15.6833 97.0877 15.6833C99.9749 15.6833 102.315 17.9238 102.315 17.9238ZM100.19 17.9928C100.112 18.0401 100.03 18.0875 99.9435 18.1343C99.2051 18.5362 98.2248 18.8721 97.0877 18.8721C95.8031 18.8721 94.709 18.6462 93.9888 18.3376C93.5625 18.1549 93.3844 18.0038 93.312 17.9238C93.3844 17.8439 93.5625 17.6928 93.9888 17.5101C94.709 17.2014 95.8031 16.9756 97.0877 16.9756C98.1471 16.9756 99.183 17.3942 100.019 17.8889C100.077 17.9236 100.134 17.9583 100.19 17.9928Z" fill="#86B77B"/>
<path opacity="0.8" fill-rule="evenodd" clip-rule="evenodd" d="M27.6328 32.8605C27.312 33.3972 25.2923 35.101 22.405 35.101C19.5178 35.101 17.1772 34.0979 17.1772 32.8605C17.1772 31.6231 19.5178 30.62 22.405 30.62C25.2923 30.62 27.6328 32.8605 27.6328 32.8605ZM25.5069 32.9295C25.429 32.9768 25.347 33.0241 25.2609 33.071C24.5225 33.4728 23.5422 33.8087 22.405 33.8087C21.1205 33.8087 20.0263 33.5829 19.3061 33.2742C18.8799 33.0916 18.7017 32.9405 18.6294 32.8605C18.7017 32.7805 18.8799 32.6294 19.3061 32.4467C20.0263 32.1381 21.1205 31.9123 22.405 31.9123C23.4645 31.9123 24.5004 32.3308 25.336 32.8256C25.3946 32.8602 25.4516 32.8949 25.5069 32.9295Z" fill="#86B77B"/>
<path opacity="0.5" fill-rule="evenodd" clip-rule="evenodd" d="M73.936 9.33533C73.936 9.33533 73.9991 9.40576 74.1158 9.51927C74.2938 9.69233 74.5966 9.96552 74.9909 10.2419C75.6695 10.7175 76.6191 11.2024 77.6702 11.2024C78.9049 11.2024 79.6732 10.7222 80.2865 10.2236C80.4144 10.1196 80.5356 10.0148 80.6528 9.9134C80.9123 9.68895 81.1526 9.48112 81.4043 9.33533C81.326 9.28444 81.2159 9.18401 81.0745 9.05497C80.8748 8.87275 80.6126 8.6335 80.2892 8.39623C79.6513 7.92839 78.7752 7.46826 77.6702 7.46826C76.6191 7.46826 75.6695 7.9532 74.9909 8.4288C74.5966 8.70514 74.2938 8.97833 74.1158 9.15139C73.9991 9.2649 73.936 9.33533 73.936 9.33533ZM76.1978 9.33533C76.6615 9.59073 77.1687 9.76656 77.6702 9.76656C78.3387 9.76656 78.7758 9.57604 79.1448 9.32695C78.7203 9.07962 78.2322 8.9041 77.6702 8.9041C77.1687 8.9041 76.6615 9.07994 76.1978 9.33533Z" fill="#86B77B"/>
<path opacity="0.5" fill-rule="evenodd" clip-rule="evenodd" d="M0.197794 28.569C0.0693737 28.6825 0 28.7529 0 28.7529C0 28.7529 0.0693738 28.8234 0.197794 28.9369C0.393596 29.1099 0.726663 29.3831 1.16039 29.6595C1.90683 30.1351 2.95141 30.62 4.10755 30.62C5.92964 30.62 7.14576 29.6147 7.818 29.059C7.96236 28.9397 8.08164 28.8411 8.17646 28.7776C8.18983 28.7687 8.20271 28.7604 8.21511 28.7529C8.04088 28.4956 7.67052 28.1091 7.12107 27.7544C6.40677 27.2933 5.38979 26.8859 4.10755 26.8859C2.95141 26.8859 1.90683 27.3708 1.16039 27.8464C0.726663 28.1227 0.393596 28.3959 0.197794 28.569ZM2.48789 28.7529C2.99802 29.0083 3.55596 29.1842 4.10755 29.1842C4.79235 29.1842 5.36247 28.9776 5.84787 28.6993C5.3929 28.4873 4.80949 28.3217 4.10755 28.3217C3.55596 28.3217 2.99802 28.4975 2.48789 28.7529Z" fill="#86B77B"/>
<path opacity="0.32" fill-rule="evenodd" clip-rule="evenodd" d="M88.717 0.977162C88.7175 0.977286 88.7153 0.980732 88.7089 0.987125C88.7133 0.980234 88.7165 0.977037 88.717 0.977162ZM88.347 1.17472C87.9927 1.00185 87.516 0.861504 87.0055 0.861504C86.4619 0.861504 85.9995 0.946252 85.6767 1.06119C86.0335 1.2371 86.5051 1.37898 87.0055 1.37898C87.5563 1.37898 88.0237 1.29198 88.347 1.17472ZM85.294 1.26332C85.2935 1.2632 85.2957 1.25975 85.3021 1.25336C85.2977 1.26025 85.2945 1.26345 85.294 1.26332ZM87.0055 2.24048C88.4491 2.24048 89.6194 1.73893 89.6194 1.12024C89.6194 0.817807 88.4491 0 87.0055 0C85.5619 0 84.3916 0.501549 84.3916 1.12024C84.3916 1.39233 85.5619 2.24048 87.0055 2.24048Z" fill="#86B77B"/>
</svg>
