<svg width="24" height="24" viewBox="0 0 24 24" fill="none" xmlns="http://www.w3.org/2000/svg">
<ellipse cx="12.0002" cy="12.0004" rx="11.9997" ry="11.9997" fill="white"/>
<path d="M12 0C18.6271 0.000178842 23.999 5.37287 23.999 12C23.9988 18.627 18.627 23.9988 12 23.999C5.37288 23.999 0.000177815 18.6271 0 12C0 5.37276 5.37277 0 12 0ZM11.9971 5.28418C11.3982 5.28432 10.9124 5.77032 10.9121 6.36914V10.9082L6.37207 10.9092C5.7732 10.9093 5.28738 11.3953 5.28711 11.9941C5.28718 12.5931 5.77307 13.079 6.37207 13.0791L10.9121 13.0781V17.6191C10.9121 18.2182 11.3981 18.704 11.9971 18.7041C12.5962 18.7041 13.082 18.2182 13.082 17.6191V13.0781L17.6221 13.0791C18.2211 13.0791 18.707 12.5932 18.707 11.9941C18.7068 11.3953 18.221 10.9092 17.6221 10.9092L13.082 10.9082V6.36914C13.0818 5.77023 12.596 5.28418 11.9971 5.28418Z" fill="#009773"/>
</svg>
