<svg width="24" height="24" viewBox="0 0 24 24" fill="none" xmlns="http://www.w3.org/2000/svg">
<path d="M11.916 0C18.4968 0.000150495 23.8311 5.33523 23.8311 11.916C23.8309 18.4967 18.4967 23.8309 11.916 23.8311C5.33523 23.8311 0.000149469 18.4968 0 11.916C0 5.33513 5.33514 0 11.916 0ZM11.9131 5.24707C11.3184 5.24708 10.8363 5.72958 10.8359 6.32422V10.832L6.32715 10.833C5.73248 10.8331 5.25025 11.3155 5.25 11.9102C5.25 12.505 5.73233 12.9872 6.32715 12.9873H10.8359V17.4961C10.8359 18.091 11.3182 18.5732 11.9131 18.5732C12.508 18.5732 12.9902 18.091 12.9902 17.4961V12.9873H17.499C18.0939 12.9872 18.5762 12.505 18.5762 11.9102C18.5759 11.3155 18.0937 10.8331 17.499 10.833L12.9902 10.832V6.32422C12.9899 5.72958 12.5078 5.24707 11.9131 5.24707Z" fill="#C8C8C8"/>
</svg>
