<svg width="24" height="24" viewBox="0 0 24 24" fill="none" xmlns="http://www.w3.org/2000/svg">
<path d="M10 2C14.4183 2 18 5.58241 18 10.001L17.9893 10.4121C17.8991 12.1908 17.226 13.8144 16.1602 15.1006L22.1738 21.1152L21.1133 22.1758L15.0996 16.1611C13.7149 17.3088 11.939 18.001 10 18.001C5.71976 18.001 2.22496 14.6394 2.01074 10.4121L2 10.001C2 5.58241 5.58172 2 10 2ZM10 3.5C6.41024 3.5 3.5 6.41074 3.5 10.001C3.50024 13.591 6.41039 16.501 10 16.501C13.5896 16.501 16.4998 13.591 16.5 10.001C16.5 6.41074 13.5898 3.5 10 3.5Z" fill="black"/>
</svg>
