<svg width="24" height="24" viewBox="0 0 24 24" fill="none" xmlns="http://www.w3.org/2000/svg">
<path d="M20.4413 16.1103C20.4413 20.4675 17.0599 23.9998 12.8886 23.9998C8.71739 23.9998 5.33594 20.4675 5.33594 16.1103C5.33594 11.753 12.8886 2.82349 12.8886 2.82349C12.8886 2.82349 20.4413 11.753 20.4413 16.1103Z" fill="#A0F2E3"/>
<path fill-rule="evenodd" clip-rule="evenodd" d="M11.3832 0.166259C11.5506 -0.0316555 11.8468 -0.0563942 12.0447 0.111003C12.2426 0.278401 12.2674 0.574544 12.1 0.772458L11.7416 0.469358L11.3832 0.166259ZM5.65494 10.2476C4.93834 11.715 4.49729 13.0388 4.49729 14.0393C4.49729 18.2497 7.75976 21.6276 11.7416 21.6276C15.7234 21.6276 18.9859 18.2497 18.9859 14.0393C18.9859 12.7489 18.2557 10.9429 17.1839 9.01795C17.0578 8.79148 17.1392 8.50566 17.3657 8.37957C17.5921 8.25347 17.878 8.33484 18.0041 8.56132C19.0779 10.49 19.9246 12.4842 19.9246 14.0393C19.9246 18.7291 16.28 22.5663 11.7416 22.5663C7.20316 22.5663 3.55859 18.7291 3.55859 14.0393C3.55859 12.8148 4.08175 11.3299 4.81146 9.83567C5.54826 8.32693 6.526 6.74924 7.49664 5.32166C8.4684 3.89244 9.43923 2.60468 10.1667 1.6747C10.5306 1.20948 10.834 0.833215 11.0467 0.572898C11.1531 0.442727 11.2369 0.341511 11.2942 0.272622L11.3599 0.193943L11.3771 0.173569L11.3832 0.166259C11.3833 0.166147 11.3832 0.166259 11.7416 0.469358L12.1 0.772458L12.0988 0.773782L12.0949 0.778402L12.079 0.797369L12.0157 0.873109C11.9601 0.939984 11.8781 1.03905 11.7736 1.16694C11.5645 1.42275 11.2653 1.79374 10.906 2.25304C10.1871 3.1721 9.22956 4.44244 8.2729 5.84945C7.31513 7.2581 6.36445 8.79476 5.65494 10.2476Z" fill="#404040"/>
</svg>
