<svg width="24" height="24" viewBox="0 0 24 24" fill="none" xmlns="http://www.w3.org/2000/svg">
<path d="M8.63965 3.28589C11.3752 3.28589 13.5927 5.50346 13.5928 8.23901C13.5928 10.4935 12.0864 12.3943 10.0254 12.9939C9.65558 10.6238 7.60564 8.8103 5.13184 8.8103C4.65042 8.8103 4.18519 8.87947 3.74512 9.00757C3.70613 8.75719 3.68652 8.50032 3.68652 8.23901C3.68663 5.50353 5.90416 3.286 8.63965 3.28589Z" fill="#C5EEBB"/>
<path fill-rule="evenodd" clip-rule="evenodd" d="M13.7451 9.08081C14.2892 11.2256 16.232 12.8122 18.5459 12.8123C19.1112 12.8123 19.6541 12.7162 20.1602 12.5417C20.2593 12.9326 20.3125 13.3418 20.3125 13.7634C20.3125 16.4991 18.095 18.7166 15.3594 18.7166C12.6238 18.7165 10.4062 16.499 10.4062 13.7634C10.4063 11.5933 11.8024 9.75042 13.7451 9.08081Z" fill="#C5EEBB"/>
<path d="M8.64062 5.28027C11.3762 5.28027 13.5936 7.49784 13.5938 10.2334C13.5938 11.6773 12.9758 12.9762 11.99 13.881C11.1015 14.6965 9.87484 13.8841 9.17794 12.8999C8.2808 11.6328 6.80342 10.8057 5.13281 10.8057C4.91898 10.8057 4.70833 10.8193 4.50165 10.8457C4.09534 10.8976 3.6875 10.643 3.6875 10.2334C3.68761 7.49791 5.90514 5.28038 8.64062 5.28027Z" fill="#C5EEBB"/>
<path fill-rule="evenodd" clip-rule="evenodd" d="M13.7451 11.0774C14.2894 13.2219 16.2331 14.8079 18.5469 14.8079C19.1123 14.8078 19.655 14.7118 20.1611 14.5374C20.2605 14.9285 20.3134 15.338 20.3135 15.76C20.3135 18.4957 18.096 20.7141 15.3604 20.7141C12.6247 20.7141 10.4072 18.4956 10.4072 15.76C10.4074 13.5902 11.8028 11.7472 13.7451 11.0774Z" fill="#C5EEBB"/>
<path d="M10.4066 13.467C10.4066 10.7313 8.18897 8.51367 5.45332 8.51367C2.71768 8.51367 0.5 10.7313 0.5 13.467" stroke="#404040" stroke-linecap="round"/>
<path d="M20.3139 13.4675C20.3139 16.2032 18.0962 18.4209 15.3605 18.4209C12.6249 18.4209 10.4072 16.2032 10.4072 13.4675" stroke="#404040" stroke-linecap="round"/>
<path d="M13.5932 8.23921C13.5932 5.50357 11.3755 3.28589 8.63985 3.28589C5.9042 3.28589 3.68652 5.50357 3.68652 8.23921" stroke="#404040" stroke-linecap="round"/>
<path d="M23.5004 8.2395C23.5004 10.9751 21.2827 13.1928 18.5471 13.1928C15.8114 13.1928 13.5938 10.9751 13.5938 8.2395" stroke="#404040" stroke-linecap="round"/>
</svg>
