<svg width="24" height="24" viewBox="0 0 24 24" fill="none" xmlns="http://www.w3.org/2000/svg">
<path d="M13.0029 2.77246C14.861 2.77246 16.3671 4.27868 16.3672 6.13672V16.1006C17.1736 16.9393 17.6699 18.0786 17.6699 19.334C17.6699 21.9112 15.5801 24 13.0029 24C10.4259 23.9998 8.33694 21.911 8.33691 19.334C8.33691 18.079 8.83279 16.9402 9.63867 16.1016V6.13672C9.63875 4.2787 11.1449 2.7725 13.0029 2.77246Z" fill="#D9D9D9"/>
<path d="M11.4551 0C13.4958 7.32532e-05 15.1504 1.65458 15.1504 3.69531V4.55371H15.1328C15.1216 4.81527 14.9079 5.02438 14.6436 5.02441C14.3792 5.02441 14.1655 4.81529 14.1543 4.55371H14.1504V3.69531C14.1504 2.29987 13.0896 1.15168 11.7305 1.01367L11.4551 1C9.96659 1 8.75977 2.20682 8.75977 3.69531V15.041L8.48047 15.332C8.43576 15.3786 8.39211 15.4261 8.34961 15.4746C8.30714 15.5231 8.26577 15.5726 8.22559 15.623C8.10534 15.774 7.99585 15.9337 7.89746 16.1006C7.86457 16.1564 7.83303 16.2131 7.80273 16.2705C7.74231 16.3851 7.68633 16.5024 7.63672 16.623C7.4381 17.1059 7.3291 17.6348 7.3291 18.1895C7.32911 18.2605 7.3314 18.3312 7.33496 18.4014C7.34923 18.6828 7.39107 18.9569 7.45898 19.2207C7.49285 19.3522 7.53293 19.4813 7.5791 19.6074C7.99553 20.7449 8.89868 21.648 10.0361 22.0645C10.1623 22.1106 10.2913 22.1507 10.4229 22.1846C10.7525 22.2694 11.098 22.3144 11.4541 22.3145C13.6611 22.3145 15.4627 20.5811 15.5732 18.4014L15.5791 18.1895C15.5791 17.7042 15.4957 17.2388 15.3418 16.8066C15.2979 16.6833 15.2474 16.563 15.1924 16.4453C15.1648 16.3864 15.1367 16.3279 15.1064 16.2705C14.9855 16.0411 14.8431 15.8246 14.6826 15.623C14.6026 15.5226 14.5176 15.4256 14.4287 15.333L14.1504 15.043V9.71094C14.1461 9.68478 14.1426 9.65821 14.1426 9.63086C14.1426 9.35419 14.3669 9.12988 14.6436 9.12988C14.92 9.13011 15.1445 9.35433 15.1445 9.63086C15.1445 9.65313 15.1405 9.67479 15.1377 9.69629H15.1504V14.6406C15.3715 14.8709 15.5717 15.1214 15.7471 15.3896C15.8347 15.5237 15.9161 15.6623 15.9912 15.8047C16.1039 16.0184 16.2012 16.2414 16.2832 16.4717C16.3105 16.5484 16.3366 16.6258 16.3604 16.7041C16.4078 16.8609 16.448 17.0208 16.4805 17.1836C16.5453 17.5088 16.5791 17.8452 16.5791 18.1895C16.5789 21.0198 14.2845 23.3145 11.4541 23.3145C11.3657 23.3144 11.2778 23.312 11.1904 23.3076C10.8409 23.2899 10.5005 23.2377 10.1729 23.1533C10.0093 23.1112 9.84919 23.0603 9.69238 23.0029C7.73003 22.2844 6.32932 20.4007 6.3291 18.1895C6.3291 17.9309 6.34874 17.6769 6.38574 17.4287C6.54603 16.3533 7.04038 15.3871 7.75977 14.6387V3.69531C7.75977 1.65454 9.4143 0 11.4551 0Z" fill="#404040"/>
<path fill-rule="evenodd" clip-rule="evenodd" d="M14.1797 6.03414C14.1797 5.79307 14.3751 5.59766 14.6162 5.59766H17.2333C17.4744 5.59766 17.6698 5.79307 17.6698 6.03414C17.6698 6.2752 17.4744 6.47061 17.2333 6.47061H14.6162C14.3751 6.47061 14.1797 6.2752 14.1797 6.03414Z" fill="#404040"/>
<path fill-rule="evenodd" clip-rule="evenodd" d="M14.1797 8.21626C14.1797 7.9752 14.3751 7.77979 14.6162 7.77979H17.2333C17.4744 7.77979 17.6698 7.9752 17.6698 8.21626C17.6698 8.45733 17.4744 8.65274 17.2333 8.65274H14.6162C14.3751 8.65274 14.1797 8.45733 14.1797 8.21626Z" fill="#404040"/>
</svg>
