<svg width="24" height="24" viewBox="0 0 24 24" fill="none" xmlns="http://www.w3.org/2000/svg">
<path d="M19.3087 15.3384C19.3087 20.1222 15.4307 24.0001 10.647 24.0001C5.86332 24.0001 1.98535 20.1222 1.98535 15.3384C1.98535 10.5547 5.86332 6.67676 10.647 6.67676C15.4307 6.67676 19.3087 10.5547 19.3087 15.3384Z" fill="#FF6E6E"/>
<path fill-rule="evenodd" clip-rule="evenodd" d="M9.68771 5.43934C5.03424 5.43934 1.26185 9.21173 1.26185 13.8652C1.26185 18.5187 5.03424 22.2911 9.68771 22.2911C14.3412 22.2911 18.1136 18.5187 18.1136 13.8652C18.1136 13.1151 18.0157 12.3886 17.8322 11.6975C17.5599 10.6716 17.0988 9.72235 16.488 8.88908C16.3342 8.67939 16.3796 8.38479 16.5893 8.23107C16.799 8.07735 17.0936 8.12273 17.2473 8.33242C17.9262 9.25846 18.4392 10.3143 18.7422 11.4559C18.9464 12.2252 19.0551 13.0329 19.0551 13.8652C19.0551 19.0387 14.8612 23.2326 9.68771 23.2326C4.51424 23.2326 0.320312 19.0387 0.320312 13.8652C0.320312 8.69173 4.51424 4.4978 9.68771 4.4978C9.94771 4.4978 10.1585 4.70857 10.1585 4.96857C10.1585 5.22857 9.94771 5.43934 9.68771 5.43934Z" fill="#404040"/>
<path fill-rule="evenodd" clip-rule="evenodd" d="M17.6686 1.50389C17.8525 1.68779 17.8525 1.98595 17.6686 2.16984L15.2267 4.6117C15.0428 4.79559 14.7447 4.79559 14.5608 4.6117C14.3769 4.4278 14.3769 4.12964 14.5608 3.94574L17.0026 1.50389C17.1865 1.31999 17.4847 1.31999 17.6686 1.50389Z" fill="#FF6E6E"/>
<path fill-rule="evenodd" clip-rule="evenodd" d="M23.4919 7.50037C23.5592 7.75158 23.4102 8.00979 23.1589 8.0771L19.8233 8.97088C19.5721 9.03819 19.3139 8.88911 19.2466 8.6379C19.1793 8.38669 19.3283 8.12848 19.5796 8.06117L22.9152 7.16739C23.1664 7.10008 23.4246 7.24916 23.4919 7.50037Z" fill="#FF6E6E"/>
<path fill-rule="evenodd" clip-rule="evenodd" d="M13.0337 0.176727C13.2694 0.286638 13.3714 0.566815 13.2615 0.80252L11.802 3.93227C11.6921 4.16798 11.4119 4.26995 11.1762 4.16004C10.9405 4.05013 10.8386 3.76995 10.9485 3.53425L12.4079 0.404497C12.5178 0.168792 12.798 0.0668164 13.0337 0.176727Z" fill="#FF6E6E"/>
</svg>
