<svg width="24" height="24" viewBox="0 0 24 24" fill="none" xmlns="http://www.w3.org/2000/svg">
<path d="M16.9463 3.17017C18.1341 3.17017 19.0977 5.21611 19.0977 7.7395C19.0976 8.41628 19.0257 9.0582 18.9014 9.63599C18.5832 12.5021 15.9131 14.7393 12.666 14.7395C9.59434 14.7395 7.03961 12.7374 6.50293 10.095C6.30763 9.40704 6.19339 8.60142 6.19336 7.7395C6.19336 5.21632 7.15609 3.17051 8.34375 3.17017C9.39636 3.17017 10.2703 4.77685 10.4561 6.89868C10.481 6.90046 10.5061 6.90178 10.5312 6.90356C10.7161 4.77926 11.5921 3.17017 12.6455 3.17017C13.6992 3.17059 14.5735 4.78108 14.7578 6.90649C14.783 6.90471 14.808 6.90241 14.833 6.90063C15.0184 4.77796 15.8935 3.17044 16.9463 3.17017Z" fill="#F8A3BD"/>
<path d="M15.6562 1.99976V1.49976L15.6561 1.49976L15.6562 1.99976ZM17.8076 6.56909L18.3076 6.56911V6.56909H17.8076ZM17.6113 8.46558L17.1225 8.36041L17.1172 8.38521L17.1144 8.41042L17.6113 8.46558ZM11.376 13.5691V14.0691H11.376L11.376 13.5691ZM5.21289 8.92456L5.70289 8.82504L5.69909 8.80635L5.69388 8.78801L5.21289 8.92456ZM4.90332 6.56909H4.40332V6.56911L4.90332 6.56909ZM7.05371 1.99976V1.49976L7.05357 1.49976L7.05371 1.99976ZM11.3555 1.99976L11.3557 1.49976H11.3555V1.99976ZM13.5081 5.73293L13.4676 5.23458L13.5081 5.73293ZM13.5461 5.69515L14.044 5.74054L13.5461 5.69515ZM13.4642 5.69561L13.9621 5.65025L13.4642 5.69561ZM9.20087 5.73054L9.23175 5.2315L9.20087 5.73054ZM9.24482 5.69272L8.74689 5.64721L9.24482 5.69272ZM9.16288 5.69323L8.66495 5.73872L9.16288 5.69323ZM15.6562 1.99976V2.49976C15.9428 2.49976 16.355 2.76539 16.725 3.55116C17.0765 4.29773 17.3076 5.36421 17.3076 6.56909H17.8076H18.3076C18.3076 5.25058 18.0569 4.0324 17.6297 3.12515C17.221 2.25709 16.5575 1.49976 15.6562 1.49976V1.99976ZM17.8076 6.56909L17.3076 6.56908C17.3076 7.21098 17.2393 7.81763 17.1225 8.36041L17.6113 8.46558L18.1001 8.57075C18.232 7.95795 18.3076 7.28077 18.3076 6.56911L17.8076 6.56909ZM17.6113 8.46558L17.1144 8.41042C16.8283 10.9879 14.4056 13.0689 11.376 13.0691L11.376 13.5691L11.376 14.0691C14.8406 14.0689 17.7581 11.6755 18.1083 8.52074L17.6113 8.46558ZM11.376 13.5691V13.0691C8.51237 13.0691 6.18656 11.2065 5.70289 8.82504L5.21289 8.92456L4.72289 9.02408C5.31257 11.9275 8.09623 14.0691 11.376 14.0691V13.5691ZM5.21289 8.92456L5.69388 8.78801C5.5121 8.14771 5.40335 7.38828 5.40332 6.56908L4.90332 6.56909L4.40332 6.56911C4.40335 7.47373 4.52308 8.32556 4.7319 9.06111L5.21289 8.92456ZM4.90332 6.56909H5.40332C5.40332 5.36426 5.63421 4.29784 5.98555 3.55127C6.35533 2.76551 6.76735 2.49984 7.05386 2.49976L7.05371 1.99976L7.05357 1.49976C6.15241 1.50002 5.48924 2.25743 5.08074 3.12546C4.6538 4.03267 4.40332 5.25074 4.40332 6.56909H4.90332ZM7.05371 1.99976V2.49976C7.30384 2.49976 7.65176 2.69747 7.99324 3.30295C8.32203 3.88592 8.57337 4.73624 8.66495 5.73872L9.16288 5.69323L9.66081 5.64774C9.56013 4.54577 9.28029 3.54936 8.86426 2.8117C8.46092 2.09655 7.85039 1.49976 7.05371 1.49976V1.99976ZM9.24482 5.69272L9.74274 5.73824C9.83436 4.73598 10.086 3.88584 10.4151 3.30298C10.7569 2.69762 11.1052 2.49976 11.3555 2.49976V1.99976V1.49976C10.559 1.49976 9.9481 2.09625 9.54436 2.81131C9.1279 3.54887 8.84763 4.54521 8.74689 5.64721L9.24482 5.69272ZM11.3555 1.99976L11.3553 2.49976C11.6055 2.49986 11.9535 2.69784 12.2949 3.30379C12.6237 3.8872 12.8749 4.73803 12.9662 5.74098L13.4642 5.69561L13.9621 5.65025C13.8617 4.54784 13.582 3.55095 13.1661 2.81287C12.7629 2.09734 12.1525 1.50008 11.3557 1.49976L11.3555 1.99976ZM13.5461 5.69515L14.044 5.74054C14.1354 4.73774 14.3869 3.88704 14.716 3.30373C15.0577 2.69789 15.4061 2.49982 15.6564 2.49976L15.6562 1.99976L15.6561 1.49976C14.8594 1.49996 14.2486 2.09696 13.845 2.81242C13.4287 3.55042 13.1486 4.54728 13.0482 5.64977L13.5461 5.69515ZM13.5081 5.73293L13.5486 6.23129C13.8137 6.20974 14.0204 6.00004 14.044 5.74054L13.5461 5.69515L13.0482 5.64977C13.0682 5.43044 13.2427 5.25286 13.4676 5.23458L13.5081 5.73293ZM13.4642 5.69561L12.9662 5.74098C12.9926 6.03036 13.2469 6.25581 13.5486 6.23129L13.5081 5.73293L13.4676 5.23458C13.7246 5.21369 13.9398 5.40552 13.9621 5.65025L13.4642 5.69561ZM9.20087 5.73054L9.16999 6.22959C9.46435 6.2478 9.71628 6.02776 9.74274 5.73824L9.24482 5.69272L8.74689 5.64721C8.76928 5.4023 8.9821 5.21605 9.23175 5.2315L9.20087 5.73054ZM9.16288 5.69323L8.66495 5.73872C8.6886 5.99751 8.89666 6.21267 9.16999 6.22959L9.20087 5.73054L9.23175 5.2315C9.46484 5.24592 9.64083 5.42909 9.66081 5.64774L9.16288 5.69323Z" fill="#404040"/>
<path d="M6.19336 22.0001C6.45918 21.0098 7.62876 17.9375 10.1805 13.5706" stroke="#404040" stroke-linecap="round"/>
</svg>
