<svg width="24" height="24" viewBox="0 0 24 24" fill="none" xmlns="http://www.w3.org/2000/svg">
<path d="M20.7985 8.71314C22.5469 7.28858 22.6785 4.67069 21.0816 3.07916L20.9761 2.97393C19.3792 1.3824 16.7525 1.5135 15.3232 3.25607L10.0306 9.7086C9.03862 10.9179 9.12713 12.6795 10.2353 13.784C11.3435 14.8886 13.111 14.9768 14.3244 13.9881L20.7985 8.71314Z" fill="#8BC2C6"/>
<path fill-rule="evenodd" clip-rule="evenodd" d="M5.26405 18.7358C5.45034 18.9215 5.45034 19.2225 5.26405 19.4082L3.24027 21.4252C3.05399 21.6109 2.75196 21.6109 2.56568 21.4252C2.37939 21.2395 2.37939 20.9385 2.56568 20.7529L4.58946 18.7358C4.77574 18.5502 5.07777 18.5502 5.26405 18.7358Z" fill="#404040"/>
<path fill-rule="evenodd" clip-rule="evenodd" d="M6.8926 20.4489C7.12075 20.5802 7.19892 20.8709 7.06719 21.0983L5.63616 23.5687C5.50444 23.7961 5.21271 23.874 4.98455 23.7427C4.7564 23.6114 4.67823 23.3206 4.80996 23.0933L6.24099 20.6229C6.37271 20.3955 6.66444 20.3176 6.8926 20.4489Z" fill="#404040"/>
<path fill-rule="evenodd" clip-rule="evenodd" d="M3.54319 17.1124C3.67492 17.3398 3.59675 17.6306 3.36859 17.7618L0.889977 19.1881C0.661827 19.3194 0.370092 19.2415 0.238369 19.0141C0.106647 18.7867 0.184817 18.4959 0.412967 18.3647L2.89158 16.9384C3.11974 16.8071 3.41147 16.885 3.54319 17.1124Z" fill="#404040"/>
<path fill-rule="evenodd" clip-rule="evenodd" d="M3.90557 15.7288C3.10191 14.9279 3.17464 13.6086 4.06153 12.9002L7.55302 10.1114C8.31218 9.50505 9.40752 9.56504 10.0954 10.2507L13.7779 13.9208C14.4658 14.6064 14.526 15.6981 13.9176 16.4548L11.1194 19.9346C10.4087 20.8185 9.08502 20.891 8.28135 20.09L3.90557 15.7288Z" fill="#8BC2C6"/>
<mask id="path-6-inside-1_1_3249" fill="white">
<path fill-rule="evenodd" clip-rule="evenodd" d="M14.2725 1.57907C15.8895 -0.391938 18.8607 -0.539614 20.6671 1.26071L20.7725 1.3652C22.5787 3.16553 22.4307 6.12769 20.4532 7.73922L14.2598 12.7832C14.5263 13.7011 14.2629 14.6389 13.6436 15.4091L10.8458 18.8886C10.6729 19.1036 10.3575 19.1379 10.1417 18.9658C9.92583 18.7934 9.8906 18.4788 10.0635 18.2636L12.8614 14.7841C13.3622 14.1612 13.4839 13.4915 13.2344 12.8847C13.1072 12.6756 13.1486 12.4006 13.3438 12.2412L19.8184 6.96676C21.3374 5.72916 21.4508 3.4539 20.0635 2.07125L19.959 1.96578C18.5718 0.58328 16.2896 0.698061 15.0479 2.21188L9.75494 8.66403C9.59453 8.85927 9.31762 8.89976 9.10748 8.77145C8.74811 8.6622 8.42988 8.63783 8.13482 8.69039C7.83408 8.74404 7.52621 8.88301 7.20123 9.14254L3.71002 11.9316C3.05612 12.4541 3.00215 13.4269 3.59479 14.0175C3.79015 14.2124 3.79006 14.5287 3.59479 14.7236C3.39922 14.9182 3.08132 14.9183 2.8858 14.7236C1.87158 13.7124 1.96371 12.0466 3.08307 11.1523L6.57428 8.36325C7.00824 8.01666 7.46754 7.79551 7.95807 7.70797C8.3714 7.63429 8.78556 7.66065 9.20025 7.76266L14.2725 1.57907Z"/>
</mask>
<path d="M14.2725 1.57907L13.4994 0.94481L13.4994 0.944857L14.2725 1.57907ZM20.6671 1.26071L19.9611 1.969L19.9632 1.97109L20.6671 1.26071ZM20.7725 1.3652L21.4785 0.656944L21.4763 0.65481L20.7725 1.3652ZM20.4532 7.73922L21.0847 8.51461L21.0849 8.51442L20.4532 7.73922ZM14.2598 12.7832L13.6283 12.0078L13.1149 12.426L13.2995 13.0619L14.2598 12.7832ZM13.6436 15.4091L14.4229 16.0358L14.4229 16.0358L13.6436 15.4091ZM10.8458 18.8886L10.0665 18.262H10.0665L10.8458 18.8886ZM10.1417 18.9658L9.51756 19.7471L9.51827 19.7477L10.1417 18.9658ZM10.0635 18.2636L9.28423 17.637L9.28416 17.6371L10.0635 18.2636ZM12.8614 14.7841L13.6407 15.4108L13.6407 15.4108L12.8614 14.7841ZM13.2344 12.8847L14.1593 12.5044L14.1294 12.4318L14.0886 12.3648L13.2344 12.8847ZM13.3438 12.2412L12.7122 11.4659L12.7113 11.4666L13.3438 12.2412ZM19.8184 6.96676L20.45 7.74207L20.4501 7.74201L19.8184 6.96676ZM20.0635 2.07125L19.3531 2.77508L19.3576 2.77954L20.0635 2.07125ZM19.959 1.96578L20.6694 1.26196L20.6649 1.25746L19.959 1.96578ZM15.0479 2.21188L15.821 2.84612L15.8211 2.84607L15.0479 2.21188ZM9.75494 8.66403L10.5276 9.29883L10.5281 9.29826L9.75494 8.66403ZM9.10748 8.77145L9.62861 7.91797L9.52004 7.85168L9.39833 7.81468L9.10748 8.77145ZM8.13482 8.69039L7.95944 7.70589L7.95922 7.70593L8.13482 8.69039ZM7.20123 9.14254L6.57721 8.36114L6.57707 8.36125L7.20123 9.14254ZM3.71002 11.9316L3.08586 11.1503L3.08579 11.1504L3.71002 11.9316ZM3.59479 14.0175L4.30097 13.3095L4.30072 13.3093L3.59479 14.0175ZM3.59479 14.7236L4.30023 15.4324L4.30124 15.4314L3.59479 14.7236ZM2.8858 14.7236L2.17975 15.4318L2.18014 15.4321L2.8858 14.7236ZM3.08307 11.1523L2.4589 10.371L2.45888 10.371L3.08307 11.1523ZM6.57428 8.36325L5.95023 7.58186L5.95012 7.58195L6.57428 8.36325ZM7.95807 7.70797L7.78256 6.72349L7.78238 6.72353L7.95807 7.70797ZM9.20025 7.76266L8.96139 8.73371L9.57358 8.8843L9.97342 8.39687L9.20025 7.76266ZM14.2725 1.57907L15.0456 2.21332C16.2878 0.699244 18.5726 0.585062 19.9611 1.96899L20.6671 1.26071L21.373 0.552419C19.1488 -1.66429 15.4912 -1.48312 13.4994 0.94481L14.2725 1.57907ZM20.6671 1.26071L19.9632 1.97109L20.0687 2.07559L20.7725 1.3652L21.4763 0.65481L21.3709 0.550318L20.6671 1.26071ZM20.7725 1.3652L20.0666 2.07345C21.4527 3.4551 21.3393 5.72713 19.8215 6.96403L20.4532 7.73922L21.0849 8.51442C23.5222 6.52825 23.7047 2.87596 21.4785 0.656948L20.7725 1.3652ZM20.4532 7.73922L19.8217 6.96383L13.6283 12.0078L14.2598 12.7832L14.8913 13.5586L21.0847 8.51461L20.4532 7.73922ZM14.2598 12.7832L13.2995 13.0619C13.4571 13.6049 13.323 14.212 12.8643 14.7825L13.6436 15.4091L14.4229 16.0358C15.2029 15.0658 15.5954 13.7972 15.2202 12.5044L14.2598 12.7832ZM13.6436 15.4091L12.8643 14.7825L10.0665 18.262L10.8458 18.8886L11.6251 19.5153L14.4229 16.0358L13.6436 15.4091ZM10.8458 18.8886L10.0665 18.262C10.2403 18.0458 10.5524 18.0144 10.765 18.1839L10.1417 18.9658L9.51827 19.7477C10.1626 20.2614 11.1054 20.1615 11.6251 19.5153L10.8458 18.8886ZM10.1417 18.9658L10.7658 18.1844C10.9807 18.3561 11.0182 18.6722 10.8429 18.8902L10.0635 18.2636L9.28416 17.6371C8.76301 18.2853 8.871 19.2307 9.51757 19.7471L10.1417 18.9658ZM10.0635 18.2636L10.8428 18.8903L13.6407 15.4108L12.8614 14.7841L12.0821 14.1575L9.28423 17.637L10.0635 18.2636ZM12.8614 14.7841L13.6407 15.4108C14.3228 14.5624 14.5738 13.5125 14.1593 12.5044L13.2344 12.8847L12.3096 13.2651C12.394 13.4705 12.4016 13.7601 12.0821 14.1575L12.8614 14.7841ZM13.2344 12.8847L14.0886 12.3648C14.2145 12.5715 14.1771 12.8518 13.9763 13.0158L13.3438 12.2412L12.7113 11.4666C12.12 11.9494 11.9998 12.7798 12.3803 13.4047L13.2344 12.8847ZM13.3438 12.2412L13.9754 13.0165L20.45 7.74207L19.8184 6.96676L19.1868 6.19146L12.7122 11.4659L13.3438 12.2412ZM19.8184 6.96676L20.4501 7.74201C22.4289 6.1297 22.5767 3.16422 20.7695 1.36297L20.0635 2.07125L19.3576 2.77954C20.3249 3.74358 20.2458 5.32862 19.1868 6.19151L19.8184 6.96676ZM20.0635 2.07125L20.7739 1.36744L20.6694 1.26197L19.959 1.96578L19.2487 2.66959L19.3531 2.77506L20.0635 2.07125ZM19.959 1.96578L20.6649 1.25746C18.8593 -0.541892 15.8908 -0.392577 14.2747 1.57769L15.0479 2.21188L15.8211 2.84607C16.6884 1.7887 18.2842 1.70845 19.2532 2.67411L19.959 1.96578ZM15.0479 2.21188L14.2748 1.57764L8.9818 8.02979L9.75494 8.66403L10.5281 9.29826L15.821 2.84612L15.0479 2.21188ZM9.75494 8.66403L8.98227 8.02922C9.14812 7.82735 9.42656 7.7946 9.62861 7.91797L9.10748 8.77145L8.58635 9.62493C9.20868 10.0049 10.0409 9.89119 10.5276 9.29883L9.75494 8.66403ZM9.10748 8.77145L9.39833 7.81468C8.91821 7.66873 8.43835 7.62058 7.95944 7.70589L8.13482 8.69039L8.31021 9.67489C8.42141 9.65508 8.578 9.65568 8.81663 9.72822L9.10748 8.77145ZM8.13482 8.69039L7.95922 7.70593C7.46942 7.7933 7.01101 8.01471 6.57721 8.36114L7.20123 9.14254L7.82526 9.92395C8.04142 9.75132 8.19874 9.69478 8.31043 9.67485L8.13482 8.69039ZM7.20123 9.14254L6.57707 8.36125L3.08586 11.1503L3.71002 11.9316L4.33418 12.7129L7.82539 9.92384L7.20123 9.14254ZM3.71002 11.9316L3.08579 11.1504C1.96629 12.0449 1.87278 13.7131 2.88885 14.7258L3.59479 14.0175L4.30072 13.3093C4.13152 13.1406 4.14596 12.8633 4.33425 12.7128L3.71002 11.9316ZM3.59479 14.0175L2.8886 14.7256C2.69194 14.5294 2.69248 14.2113 2.88833 14.0158L3.59479 14.7236L4.30124 15.4314C4.88763 14.846 4.88835 13.8954 4.30097 13.3095L3.59479 14.0175ZM3.59479 14.7236L2.88935 14.0148C3.0837 13.8214 3.39657 13.8209 3.59146 14.015L2.8858 14.7236L2.18014 15.4321C2.76607 16.0157 3.71474 16.0151 4.30022 15.4324L3.59479 14.7236ZM2.8858 14.7236L3.59185 14.0154C3.00073 13.4261 3.05375 12.4557 3.70725 11.9336L3.08307 11.1523L2.45888 10.371C0.87367 11.6375 0.742425 13.9987 2.17975 15.4318L2.8858 14.7236ZM3.08307 11.1523L3.70723 11.9336L7.19844 9.14454L6.57428 8.36325L5.95012 7.58195L2.4589 10.371L3.08307 11.1523ZM6.57428 8.36325L7.19833 9.14463C7.52283 8.88547 7.83155 8.74635 8.13376 8.69242L7.95807 7.70797L7.78238 6.72353C7.10354 6.84468 6.49366 7.14785 5.95023 7.58186L6.57428 8.36325ZM7.95807 7.70797L8.13357 8.69245C8.38807 8.64708 8.65967 8.65949 8.96139 8.73371L9.20025 7.76266L9.43912 6.79161C8.91145 6.66181 8.35472 6.62149 7.78256 6.72349L7.95807 7.70797ZM9.20025 7.76266L9.97342 8.39687L15.0457 2.21327L14.2725 1.57907L13.4994 0.944857L8.42709 7.12845L9.20025 7.76266Z" fill="#404040" mask="url(#path-6-inside-1_1_3249)"/>
</svg>
