<svg width="24" height="24" viewBox="0 0 24 24" fill="none" xmlns="http://www.w3.org/2000/svg">
<path d="M3.75 4.6875H7.6875V3.75C7.68997 3.20375 7.90806 2.68058 8.29432 2.29432C8.68058 1.90806 9.20375 1.68997 9.75 1.6875H14.25C14.7962 1.68997 15.3194 1.90806 15.7057 2.29432C16.0919 2.68058 16.31 3.20375 16.3125 3.75V4.6875H20.25C20.3992 4.6875 20.5423 4.74676 20.6477 4.85225C20.7532 4.95774 20.8125 5.10082 20.8125 5.25C20.8125 5.39918 20.7532 5.54226 20.6477 5.64775C20.5423 5.75324 20.3992 5.8125 20.25 5.8125H19.3125V19.5C19.3125 19.8481 19.1742 20.1819 18.9281 20.4281C18.6819 20.6742 18.3481 20.8125 18 20.8125H6C5.6519 20.8125 5.31806 20.6742 5.07192 20.4281C4.82578 20.1819 4.6875 19.8481 4.6875 19.5V5.8125H3.75C3.60081 5.8125 3.45774 5.75324 3.35225 5.64775C3.24676 5.54226 3.1875 5.39918 3.1875 5.25C3.1875 5.10082 3.24676 4.95774 3.35225 4.85225C3.45774 4.74676 3.60081 4.6875 3.75 4.6875ZM15.1875 3.75C15.1875 3.50136 15.0887 3.2629 14.9129 3.08709C14.7371 2.91127 14.4986 2.8125 14.25 2.8125H9.75C9.50136 2.8125 9.2629 2.91127 9.08709 3.08709C8.91127 3.2629 8.8125 3.50136 8.8125 3.75V4.6875H15.1875V3.75ZM5.8125 19.5C5.8125 19.5497 5.83225 19.5974 5.86742 19.6326C5.90258 19.6677 5.95027 19.6875 6 19.6875H18C18.0497 19.6875 18.0974 19.6677 18.1326 19.6326C18.1677 19.5974 18.1875 19.5497 18.1875 19.5V5.8125H5.8125V19.5ZM13.6875 9.75V15.75C13.6875 15.8992 13.7468 16.0423 13.8523 16.1477C13.9577 16.2532 14.1008 16.3125 14.25 16.3125C14.3992 16.3125 14.5423 16.2532 14.6477 16.1477C14.7532 16.0423 14.8125 15.8992 14.8125 15.75V9.75C14.8125 9.60082 14.7532 9.45774 14.6477 9.35225C14.5423 9.24676 14.3992 9.1875 14.25 9.1875C14.1008 9.1875 13.9577 9.24676 13.8523 9.35225C13.7468 9.45774 13.6875 9.60082 13.6875 9.75ZM9.1875 9.75V15.75C9.1875 15.8992 9.24676 16.0423 9.35225 16.1477C9.45774 16.2532 9.60082 16.3125 9.75 16.3125C9.89918 16.3125 10.0423 16.2532 10.1477 16.1477C10.2532 16.0423 10.3125 15.8992 10.3125 15.75V9.75C10.3125 9.60082 10.2532 9.45774 10.1477 9.35225C10.0423 9.24676 9.89918 9.1875 9.75 9.1875C9.60082 9.1875 9.45774 9.24676 9.35225 9.35225C9.24676 9.45774 9.1875 9.60082 9.1875 9.75Z" fill="black"/>
</svg>
