<svg width="88" height="64" viewBox="0 0 88 64" fill="none" xmlns="http://www.w3.org/2000/svg">
<path d="M26.6522 13.3863C24.0563 10.6104 22.4982 4.23184 24.0561 3.54102C27.1275 7.11026 34.0939 7.07775 36.9678 8.52936C44.7604 12.0488 43.7726 19.1457 41.71 22.7136C39.114 22.1954 32.4676 19.6048 26.6522 13.3863Z" fill="black" stroke="black"/>
<path d="M39.2837 40.8565C38.7857 35.8876 38.4553 32.3622 43.2356 25.8878M43.2356 25.8878C49.2111 17.7947 54.9725 17.1558 53.0519 9.27637C54.5457 9.2762 57.2771 10.3832 56.2528 14.8128C55.4506 18.2821 53.052 20.3485 48.1438 23.1181C44.3388 25.1705 43.2863 25.8197 43.2356 25.8878Z" stroke="black"/>
<path opacity="0.8" d="M83.4907 13.877C84.532 13.877 85.5157 14.3212 86.2729 14.8096C86.5318 14.9765 86.7562 15.1443 86.939 15.291C86.7446 15.4598 86.4946 15.6492 86.1929 15.8281C85.5005 16.2386 84.5732 16.5869 83.4907 16.5869C82.33 16.5869 81.3156 16.3659 80.6196 16.041C79.8639 15.6882 79.7323 15.3498 79.7319 15.2324C79.7319 15.1155 79.8629 14.7762 80.6196 14.4229C81.3156 14.0979 82.33 13.877 83.4907 13.877Z" stroke="#86B77B" stroke-width="1.5"/>
<path opacity="0.8" d="M18.9253 26.6211C19.9665 26.6211 20.9503 27.0653 21.7075 27.5537C21.9663 27.7207 22.1908 27.8884 22.3735 28.0352C22.1791 28.204 21.9292 28.3934 21.6274 28.5723C20.9351 28.9827 20.0078 29.3311 18.9253 29.3311C17.7646 29.331 16.7502 29.1101 16.0542 28.7852C15.2984 28.4323 15.1668 28.0939 15.1665 27.9766C15.1665 27.8596 15.2975 27.5203 16.0542 27.167C16.7502 26.8421 17.7646 26.6211 18.9253 26.6211Z" stroke="#86B77B" stroke-width="1.5"/>
<path opacity="0.5" d="M66.623 6.86816C67.367 6.8682 67.9792 7.13653 68.4678 7.45312C68.5758 7.52311 68.677 7.59481 68.7715 7.66602C68.6097 7.79605 68.4582 7.91666 68.2891 8.0293C67.8785 8.30277 67.3815 8.52536 66.623 8.52539C65.8933 8.52539 65.1918 8.21311 64.6387 7.85645C64.5559 7.80307 64.478 7.74847 64.4053 7.69629C64.4778 7.64425 64.5561 7.59132 64.6387 7.53809C65.1919 7.18134 65.8932 6.86816 66.623 6.86816Z" stroke="#86B77B" stroke-width="1.5"/>
<path opacity="0.5" d="M3.38184 23.4961C4.41654 23.4961 5.1862 23.8921 5.6543 24.2549C5.51895 24.3631 5.37217 24.4758 5.20801 24.582C4.72908 24.8919 4.12906 25.1533 3.38184 25.1533C2.6521 25.1533 1.95061 24.841 1.39746 24.4844C1.3147 24.431 1.23677 24.3764 1.16406 24.3242C1.2366 24.2722 1.31493 24.2192 1.39746 24.166C1.95066 23.8093 2.65196 23.4961 3.38184 23.4961Z" stroke="#86B77B" stroke-width="1.5"/>
<path opacity="0.32" d="M74.5142 0.5C75.0369 0.500085 75.5176 0.662797 75.8647 0.856445C76.0294 0.948339 76.1512 1.04148 76.228 1.11426C76.2251 1.11769 76.2236 1.12326 76.2202 1.12695C76.1638 1.18906 76.0599 1.26721 75.896 1.34375C75.5681 1.49676 75.0801 1.60542 74.5142 1.60547C73.9952 1.60547 73.5158 1.43712 73.1665 1.23926C73.005 1.14774 72.8834 1.05463 72.8042 0.981445C72.8051 0.980455 72.8062 0.979525 72.8071 0.978516C72.8635 0.916358 72.9671 0.838391 73.1313 0.761719C73.4594 0.608593 73.9479 0.5 74.5142 0.5Z" stroke="#86B77B"/>
<path d="M16.4333 37.9365H66.4333C66.4333 37.9365 67.4358 37.9365 67.4239 40.9365C67.412 43.9365 66.4333 43.9365 66.4333 43.9365H16.4333C16.4333 43.9365 15.4595 43.9365 15.4556 40.9365C15.4517 37.9365 16.4333 37.9365 16.4333 37.9365Z" fill="black"/>
<path d="M19.9816 44.4365H62.8865C62.8865 44.4365 63.7468 44.4365 63.7365 46.334C63.7263 48.2314 62.8865 48.2314 62.8865 48.2314H19.9816C19.9816 48.2314 19.146 48.2314 19.1426 46.334C19.1392 44.4365 19.9816 44.4365 19.9816 44.4365Z" fill="black"/>
<path d="M17.3807 48.7314H65.4868C65.4868 48.7314 66.4513 48.7314 66.4398 56.3018C66.4284 63.8721 65.4868 63.8721 65.4868 63.8721H17.3807C17.3807 63.8721 16.4437 63.8721 16.44 56.3018C16.4362 48.7314 17.3807 48.7314 17.3807 48.7314Z" fill="black"/>
</svg>
