<svg width="32" height="25" viewBox="0 0 32 25" fill="none" xmlns="http://www.w3.org/2000/svg">
<path d="M11.5171 0.000100761C11.4442 -0.000241394 11.3714 0.000305823 11.2984 0.00146915C9.35314 0.0360952 7.41053 0.63904 5.70372 1.62718C2.97285 3.20821 0.801059 5.78942 0.174506 8.7741C-0.361034 11.3264 0.301651 14.1494 2.64103 16.6944C2.54865 15.9292 2.49164 15.1975 2.46694 14.502C1.25845 12.6524 1.0119 10.7819 1.38026 9.02702C1.9171 6.46887 3.85116 4.12306 6.32097 2.69306C8.79091 1.2632 11.7519 0.763311 14.3119 1.7431C16.3987 2.54169 18.2836 4.31645 19.4854 7.53811C19.8743 7.43101 20.2696 7.32227 20.6717 7.21128C19.3599 3.66013 17.2088 1.53288 14.7522 0.592644C13.7035 0.191296 12.6113 0.00468567 11.5172 3.23672e-05L11.5171 0.000100761ZM27.8406 4.45153C27.5521 4.45085 27.2773 4.49225 27.0253 4.57559L27.6108 7.31502L29.2806 8.39965L32 7.81238C31.9005 6.86016 31.167 5.86141 30.1485 5.19982C29.4152 4.72341 28.5849 4.45365 27.8407 4.4516L27.8406 4.45153ZM20.9654 8.40615C14.7237 10.1289 9.97655 11.4445 3.82482 11.5204C3.44126 14.5901 3.86841 19.1055 5.89991 24.5371H18.2439C21.16 19.492 21.8388 13.5072 20.9654 8.40608V8.40615ZM27.4191 8.65935L21.8743 18.64C21.4466 20.4676 21.3368 21.0837 20.9602 22.1134L28.311 9.23861L27.4191 8.65935ZM25.9581 8.86785L22.3844 9.59733C22.4319 10.0077 22.4696 10.4191 22.4976 10.8313L25.1704 10.2857L25.9581 8.86785ZM12.308 14.2041C12.308 14.2041 15.0751 17.7998 14.4978 19.6786C14.2391 20.5205 13.1888 21.1576 12.308 21.1576C11.4271 21.1576 10.3769 20.5204 10.1182 19.6784C9.54092 17.7997 12.308 14.204 12.308 14.204V14.2041Z" fill="#EEF8F5"/>
</svg>
